<svg width="641" height="95" viewBox="0 0 641 95" fill="none" xmlns="http://www.w3.org/2000/svg">
    <path
        d="m 51.593493,90.73313 q -3.6,-0.72 -5.64,-3 -2.04,-2.4 -2.04,-5.76 0,-2.28 1.08,-4.8 l 28.68,-69.0000004 q 1.44,-3.6 5.52,-3.6 3.84,0 5.4,3.6 L 113.27349,77.17313 q 1.08,2.52 1.08,4.8 0,3.24 -2.04,5.64 -2.04,2.4 -5.64,3.12 l -10.319997,-25.08 h -34.44 z m 41.28,-34.8 -15.48,-39.24 -0.96,0.36 2.16,5.52 -13.2,33.36 z m 56.999777,34.8 q -6.12,0 -11.52,-1.8 -5.4,-1.92 -8.76,-5.4 -3.24,-3.48 -3.24,-8.16 0,-5.76 6.96,-6.24 1.2,6.72 5.64,9.96 4.56,3.12 11.52,3.12 6.96,0 10.8,-2.04 3.84,-2.04 3.84,-6.24 0,-3 -1.56,-4.8 -1.56,-1.92 -5.04,-3.24 -3.36,-1.44 -9.72,-2.76 -7.92,-1.8 -12.6,-3.84 -4.68,-2.04 -7.2,-5.4 -2.4,-3.36 -2.4,-8.88 0,-4.68 2.88,-8.4 2.88,-3.84 7.92,-5.88 5.16,-2.16 11.64,-2.16 6,0 11.28,1.68 5.4,1.68 8.64,4.8 3.36,3.12 3.36,7.2 0,2.76 -2.16,4.44 -2.16,1.56 -6,1.8 -0.36,-5.28 -4.32,-8.28 -3.84,-3.12 -10.8,-3.12 -5.76,0 -9.12,2.16 -3.36,2.16 -3.36,5.76 0,3.84 3.12,5.76 3.24,1.8 10.92,3.48 12.6,2.52 18.48,6.96 6,4.32 6,12.36 0,8.16 -6.6,12.72 -6.6,4.44 -18.6,4.44 z m 38.99983,-77.28 q 0,-4.3200004 2.64,-6.6000004 2.64,-2.28 7.8,-2.28 V 36.13313 q -1.68,1.92 -2.64,3.36 l 0.48,0.48 q 3.72,-5.04 9.36,-8.16 5.64,-3.24 12.24,-3.24 9.72,0 15.36,5.76 5.64,5.76 5.64,14.88 v 33.84 q 0,3.96 -2.64,5.88 -2.52,1.8 -7.8,1.8 v -40.44 q 0,-5.76 -3.24,-9.12 -3.24,-3.36 -9.84,-3.36 -4.44,0 -8.4,1.92 -3.84,1.8 -6.24,5.04 -2.28,3.12 -2.28,6.84 v 31.44 q 0,3.96 -2.64,5.88 -2.52,1.8 -7.8,1.8 z m 125.03981,77.28 q -4.32,0 -7.08,-2.04 -2.76,-2.16 -3.72,-6 l -19.8,-77.0400004 q 1.8,-1.08 4.56,-1.08 3.48,0 5.88,1.8 2.4,1.68 3.12,4.6800004 l 13.08,56.88 -1.92,7.08 0.72,0.24 19.32,-66.9600004 q 0.48,-1.8 1.8,-2.76 1.44,-0.96 3.36,-0.96 1.8,0 3.24,0.96 1.44,0.96 1.92,2.76 l 16.68,60.1200004 -1.68,7.32 0.72,0.24 15.48,-64.92 q 0.72,-3.0000004 3,-4.6800004 2.4,-1.8 5.76,-1.8 2.76,0 4.8,1.08 l -19.8,77.0400004 q -0.96,3.84 -3.84,6 -2.76,2.04 -7.08,2.04 l -20.52,-72.6 -0.72,0.24 1.56,5.64 z m 93.95977,0 q -10.32,0 -16.68,-5.52 -6.24,-5.52 -6.24,-14.52 0,-9.12 6.6,-14.64 6.6,-5.64 17.4,-5.64 11.52,0 18.96,8.16 l 0.48,-0.48 q -1.32,-1.44 -3,-3 v -5.04 q 0,-6.12 -3.84,-9.48 -3.84,-3.36 -10.92,-3.36 -12.6,0 -18,9.96 -1.92,-0.96 -3.24,-2.52 -1.2,-1.68 -1.2,-3.36 0,-3.24 3.24,-6.12 3.24,-3 8.52,-4.8 5.4,-1.8 11.28,-1.8 11.4,0 17.88,5.64 6.6,5.64 6.6,15.6 v 32.88 q 0,4.2 -2.4,6.12 -2.4,1.92 -7.56,1.92 v -5.64 q 2.52,-2.64 2.76,-3.12 l -0.48,-0.48 q -7.8,9.24 -20.16,9.24 z m 1.8,-8.28 q 7.44,0 11.64,-3.12 4.32,-3.12 4.32,-8.64 0,-5.52 -4.2,-8.76 -4.2,-3.24 -11.52,-3.24 -6.84,0 -10.8,3.24 -3.84,3.12 -3.84,8.76 0,5.64 3.72,8.76 3.84,3 10.68,3 z m 59.6399,8.28 q -8.76,0 -13.08,-4.8 -4.32,-4.92 -4.32,-12.84 v -60.84 q 0,-3.9600004 2.52,-5.7600004 2.64,-1.92 7.92,-1.92 V 72.73313 q 0,4.68 1.92,6.72 1.92,2.04 6.36,2.04 4.44,0 8.16,-2.16 1.56,1.8 1.56,4.2 0,2.88 -3,5.04 -3,2.16 -8.04,2.16 z m 38.0397,0 q -8.76,0 -13.08,-4.8 -4.32,-4.92 -4.32,-12.84 v -60.84 q 0,-3.9600004 2.52,-5.7600004 2.64,-1.92 7.92,-1.92 V 72.73313 q 0,4.68 1.92,6.72 1.92,2.04 6.36,2.04 4.44,0 8.16,-2.16 1.56,1.8 1.56,4.2 0,2.88 -3,5.04 -3,2.16 -8.04,2.16 z m 44.7597,0 q -7.32,0 -13.08,-2.76 -5.76,-2.88 -9,-7.8 -3.24,-5.04 -3.24,-11.28 v -17.76 q 0,-6.36 3.36,-11.52 3.48,-5.16 9.24,-8.04 5.88,-3 12.72,-3 6.84,0 12.48,2.88 5.76,2.88 9,7.92 3.36,5.04 3.36,11.4 v 7.68 q 0,1.92 -1.44,3.24 -1.44,1.32 -3.48,1.32 h -35.04 v 5.4 q 0,6.12 3.84,9.84 3.96,3.72 11.28,3.72 7.32,0 11.16,-3.24 3.84,-3.24 3.84,-8.76 3.6,-0.24 6,1.44 2.52,1.56 2.52,4.68 0,3.84 -3.36,7.2 -3.24,3.36 -8.64,5.4 -5.4,2.04 -11.52,2.04 z m 15.12,-35.88 v -4.08 q 0,-6 -4.2,-9.72 -4.08,-3.84 -10.92,-3.84 -6.84,0 -11.04,3.84 -4.08,3.72 -4.08,9.72 v 4.08 z m 44.39965,35.88 q -8.52,0 -12.72,-4.8 -4.2,-4.92 -4.2,-12.84 v -35.04 h -11.16 q 0,-4.08 1.8,-6.24 1.8,-2.16 4.92,-2.16 h 4.56 v -11.4 q 0,-3.96 2.52,-5.76 2.64,-1.92 7.8,-1.92 v 19.08 h 15.96 q 0,8.4 -7.56,8.4 h -8.28 v 34.68 q 0,4.8 1.68,6.84 1.8,1.92 6.36,1.92 4.2,0 7.92,-2.16 1.56,1.56 1.56,4.2 0,2.88 -3,5.04 -3,2.16 -8.16,2.16 z"
        id="text1" style="font-size:120px;font-family:K2D;-inkscape-font-specification:K2D;fill:#ffffff"
        aria-label="Ash Wallet" />
</svg>
